<svg id="图层_1" data-name="图层 1" xmlns="http://www.w3.org/2000/svg" width="92.8619mm" height="95.6147mm" viewBox="0 0 263.2306 271.0337"><defs><style>.cls-1,.cls-11,.cls-12,.cls-13,.cls-14,.cls-15,.cls-16,.cls-17,.cls-19,.cls-26,.cls-27,.cls-28,.cls-3,.cls-4,.cls-5,.cls-6,.cls-9{fill:none;}.cls-1,.cls-7{stroke:#231815;}.cls-1,.cls-11,.cls-12,.cls-13,.cls-14,.cls-15,.cls-16,.cls-17,.cls-19,.cls-2,.cls-25,.cls-26,.cls-27,.cls-28,.cls-3,.cls-4,.cls-5,.cls-6,.cls-7,.cls-8,.cls-9{stroke-miterlimit:10;}.cls-2{fill:#898989;stroke:#898989;}.cls-3,.cls-4,.cls-5,.cls-6{stroke:#b5b5b6;}.cls-11,.cls-12,.cls-13,.cls-14,.cls-15,.cls-16,.cls-26,.cls-27,.cls-28,.cls-3,.cls-4,.cls-5,.cls-6{stroke-width:0.5px;}.cls-4{stroke-dasharray:4.0841 4.0841;}.cls-5{stroke-dasharray:4.0238 4.0238;}.cls-6{stroke-dasharray:4.0141 4.0141;}.cls-7{fill:#231815;}.cls-20,.cls-24,.cls-8{fill:#036eb8;}.cls-19,.cls-8{stroke:#036eb8;}.cls-11,.cls-12,.cls-9{stroke:#c30d23;}.cls-10,.cls-21{fill:#c30d23;}.cls-12{stroke-dasharray:4.053 4.053;}.cls-13,.cls-14,.cls-25,.cls-26,.cls-27,.cls-28{stroke:#f39800;}.cls-14{stroke-dasharray:2.0733 2.0733;}.cls-15,.cls-16,.cls-17{stroke:#094;}.cls-16{stroke-dasharray:3.8824 3.8824;}.cls-18,.cls-23{fill:#094;}.cls-21,.cls-22,.cls-23,.cls-24{font-size:12px;font-family:TimesNewRomanPS-ItalicMT, Times New Roman;font-style:italic;}.cls-22,.cls-25{fill:#f39800;}.cls-26{stroke-dasharray:2.136 2.136;}.cls-27{stroke-dasharray:1.9974 1.9974;}.cls-28{stroke-dasharray:2.0111 2.0111;}</style></defs><title>diagram</title><polygon class="cls-1" points="110.481 14.442 192.721 57.433 224.959 127.007 163.854 171.164 55.048 176.681 89.408 94.425 110.481 14.442"/><circle class="cls-2" cx="110.481" cy="36.4273" r="1.8806"/><circle class="cls-2" cx="65.5431" cy="161.5766" r="1.8806"/><rect class="cls-1" x="1.1377" y="92.9796" width="176.7761" height="176.7761"/><polygon class="cls-1" points="262.093 1.278 85.317 1.278 1.138 92.98 177.914 92.98 262.093 1.278"/><polygon class="cls-1" points="262.63 1.278 177.914 92.98 177.914 269.756 262.63 178.054 262.63 1.278"/><polyline class="cls-3" points="111.907 15.844 110.481 14.442 109.834 16.335"/><line class="cls-4" x1="108.5139" y1="20.1996" x2="56.355" y2="172.8561"/><polyline class="cls-3" points="55.695 174.788 55.048 176.681 56.968 176.12"/><line class="cls-5" x1="60.8299" y1="174.9908" x2="221.1079" y2="128.1332"/><polyline class="cls-3" points="223.039 127.569 224.959 127.008 223.533 125.605"/><line class="cls-6" x1="220.6703" y1="122.7909" x2="113.3382" y2="17.2517"/><circle class="cls-7" cx="131.7944" cy="46.681" r="1.8806"/><circle class="cls-2" cx="129.9138" cy="105.5281" r="1.8806"/><circle class="cls-7" cx="177.9138" cy="92.9796" r="1.8806"/><circle class="cls-7" cx="177.9138" cy="183.9244" r="1.8806"/><circle class="cls-7" cx="94.899" cy="92.9796" r="1.8806"/><circle class="cls-7" cx="216.5108" cy="50.4422" r="1.8806"/><circle class="cls-8" cx="110.481" cy="14.4422" r="1.8806"/><circle class="cls-7" cx="89.5258" cy="183.9244" r="1.8806"/><circle class="cls-8" cx="55.0482" cy="176.681" r="1.8806"/><circle class="cls-7" cx="220.272" cy="135.5169" r="1.8806"/><circle class="cls-8" cx="224.9586" cy="127.0075" r="1.8806"/><line class="cls-9" x1="128.6601" y1="47.1288" x2="103.8919" y2="47.1288"/><polygon class="cls-10" points="100.362 47.129 105.336 45.096 104.156 47.129 105.336 49.161 100.362 47.129"/><line class="cls-11" x1="231.5533" y1="35.8676" x2="229.5533" y2="35.8676"/><line class="cls-12" x1="225.5004" y1="35.8676" x2="57.301" y2="35.8676"/><line class="cls-11" x1="55.2745" y1="35.8676" x2="53.2745" y2="35.8676"/><line class="cls-13" x1="177.9138" y1="92.9796" x2="176.9478" y2="93.2379"/><line class="cls-14" x1="174.9448" y1="93.7735" x2="131.8814" y2="105.2892"/><line class="cls-13" x1="130.8799" y1="105.557" x2="129.9138" y2="105.8154"/><line class="cls-15" x1="137.3468" y1="1.2781" x2="136.1118" y2="2.8511"/><line class="cls-16" x1="133.7142" y1="5.9048" x2="67.7807" y2="89.8797"/><line class="cls-15" x1="66.582" y1="91.4065" x2="65.3469" y2="92.9796"/><line class="cls-17" x1="100.8652" y1="47.1288" x2="108.1215" y2="39.0533"/><polygon class="cls-18" points="110.481 36.427 108.668 41.486 107.945 39.25 105.644 38.769 110.481 36.427"/><line class="cls-19" x1="110.884" y1="36.6064" x2="110.884" y2="20.2682"/><polygon class="cls-20" points="110.884 16.738 112.917 21.713 110.884 20.532 108.852 21.713 110.884 16.738"/><line class="cls-9" x1="87.6452" y1="183.9244" x2="67.9814" y2="183.9244"/><polygon class="cls-10" points="64.451 183.924 69.426 181.892 68.245 183.924 69.426 185.957 64.451 183.924"/><line class="cls-17" x1="65.1849" y1="183.4908" x2="65.1849" y2="165.1068"/><polygon class="cls-18" points="65.185 161.577 67.218 166.551 65.185 165.371 63.153 166.551 65.185 161.577"/><line class="cls-19" x1="65.1849" y1="161.7557" x2="58.778" y2="171.8222"/><polygon class="cls-20" points="56.882 174.8 57.839 169.512 58.92 171.6 61.268 171.695 56.882 174.8"/><circle class="cls-2" cx="209.4959" cy="127.0075" r="1.8806"/><line class="cls-9" x1="219.0206" y1="137.3975" x2="211.6031" y2="146.2922"/><polygon class="cls-10" points="209.342 149.003 210.967 143.881 211.772 146.09 214.089 146.485 209.342 149.003"/><line class="cls-17" x1="209.4959" y1="148.9218" x2="209.4959" y2="130.5378"/><polygon class="cls-18" points="209.496 127.007 211.529 131.982 209.496 130.802 207.464 131.982 209.496 127.007"/><line class="cls-19" x1="209.4959" y1="127.097" x2="219.5779" y2="126.9644"/><polygon class="cls-20" points="223.108 126.918 218.16 129.016 219.314 126.968 218.107 124.951 223.108 126.918"/><text class="cls-21" transform="translate(110.8838 56.5411)">u</text><text class="cls-21" transform="translate(73.3765 193.0484)">u</text><text class="cls-21" transform="translate(218.3916 148.9222)">u</text><text class="cls-22" transform="translate(167.8243 58.4216)">r1</text><text class="cls-22" transform="translate(142.4139 168.2782)">r1</text><text class="cls-22" transform="translate(74.8096 107.4086)">r1</text><text class="cls-22" transform="translate(151.9286 107.4089)">r2</text><text class="cls-23" transform="translate(94.8991 43.2931)">v</text><text class="cls-23" transform="translate(68.4811 176.6812)">v</text><text class="cls-23" transform="translate(200.0632 141.8155)">v</text><text class="cls-24" transform="translate(116.4814 16.323)">z</text><text class="cls-24" transform="translate(50.8097 167.8153)">z</text><text class="cls-24" transform="translate(214.1816 121.2481)">z</text><circle class="cls-25" cx="89.4076" cy="94.4254" r="1.8806"/><circle class="cls-25" cx="192.7207" cy="56.5412" r="1.8806"/><circle class="cls-25" cx="163.8541" cy="171.1643" r="1.8806"/><circle class="cls-25" cx="140.0034" cy="103.1173" r="1.8806"/><circle class="cls-2" cx="82.6632" cy="96.306" r="1.8806"/><circle class="cls-2" cx="142.4139" cy="151.7058" r="1.8806"/><circle class="cls-2" cx="161.9735" cy="64.4236" r="1.8806"/><line class="cls-13" x1="95.0172" y1="93.1969" x2="94.0523" y2="93.4593"/><line class="cls-26" x1="91.9911" y1="94.0196" x2="84.7769" y2="95.9808"/><line class="cls-13" x1="83.7464" y1="96.261" x2="82.7814" y2="96.5234"/><line class="cls-13" x1="177.9138" y1="183.9244" x2="177.1733" y2="183.2524"/><line class="cls-27" x1="175.6942" y1="181.91" x2="143.894" y2="153.049"/><line class="cls-13" x1="143.1544" y1="152.3778" x2="142.4139" y2="151.7058"/><line class="cls-13" x1="216.5109" y1="50.4422" x2="215.5422" y2="50.6906"/><line class="cls-28" x1="213.594" y1="51.19" x2="163.9163" y2="63.9255"/><line class="cls-13" x1="162.9422" y1="64.1753" x2="161.9735" y2="64.4236"/><line class="cls-1" x1="192.721" y1="56.5411" x2="140.0034" y2="103.1173"/><line class="cls-1" x1="89.4076" y1="94.4254" x2="140.0034" y2="103.1173"/><line class="cls-1" x1="163.8541" y1="171.1643" x2="140.0034" y2="103.1173"/></svg>